# xmcd CD database file
#
# Track frame offsets:
#	150
#	14122
#	36505
#	56957
#	79130
#	97130
#	110525
#	128760
#	153687
#	176335
#	202767
#	221715
#
# Disc length: 3183 seconds
#
# Revision: 0
# Processed by: cddbd v1.5PL3 Copyright (c) Steve Scherf et al.
# Submitted via: CDex 1.51
#
DISCID=b00c6d0c
DTITLE=LAZY - Best Collection 1977-1981 [CD4]
DYEAR=1999
DGENRE=Rock
TTITLE0=感じてナイト
TTITLE1=Dreamer
TTITLE2=Dreamy Express Trip
TTITLE3=天使が見たものは
TTITLE4=Time Gap
TTITLE5=遥かなるマザーランド
TTITLE6=Earth Ark（宇宙船地球号）
TTITLE7=僕らの国でも
TTITLE8=美しい予感
TTITLE9=Lonely Star
TTITLE10=ガラスのハート
TTITLE11=星のハーティー・ロード
EXTD=YEAR: 1999
EXTT0=
EXTT1=
EXTT2=
EXTT3=
EXTT4=
EXTT5=
EXTT6=
EXTT7=
EXTT8=
EXTT9=
EXTT10=
EXTT11=
PLAYORDER=
